<?xml version="1.0" ?><!DOCTYPE svg  PUBLIC '-//W3C//DTD SVG 1.1//EN'  'http://www.w3.org/Graphics/SVG/1.1/DTD/svg11.dtd'><svg enable-background="new 0 0 300 300" height="300px" id="Layer_1" version="1.1" viewBox="0 0 300 300" width="300px" xml:space="preserve" xmlns="http://www.w3.org/2000/svg" xmlns:xlink="http://www.w3.org/1999/xlink"><g><path d="M150.841,14.798c-74.56,0-134.998,60.441-134.998,134.999c0,74.562,60.438,135.001,134.998,135.001   c74.562,0,135.002-60.439,135.002-135.001C285.844,75.24,225.403,14.798,150.841,14.798z M150.841,265.708   c-64.016,0-115.914-51.897-115.914-115.911c0-64.013,51.898-115.908,115.914-115.908c64.018,0,115.912,51.895,115.912,115.908   C266.753,213.811,214.859,265.708,150.841,265.708z" fill="#BF3D27"/><path d="M255.271,149.797c0,57.677-46.752,104.433-104.429,104.433c-57.677,0-104.427-46.756-104.427-104.433   c0-57.674,46.75-104.428,104.427-104.428C208.519,45.369,255.271,92.123,255.271,149.797z" fill="#BF3D27"/><g><polygon fill="#FFFFFF" points="166.366,93.402 165.801,162.025 137.031,162.025 135.33,93.402   "/><path d="M164.421,200.64c-3.786,3.702-8.35,5.555-13.692,5.555c-5.573,0-10.147-1.793-13.736-5.395    c-3.596-3.589-5.391-8.165-5.391-13.729c0-5.402,1.863-9.982,5.589-13.736c3.728-3.754,8.236-5.622,13.538-5.622    c5.294,0,9.85,1.913,13.644,5.751c3.814,3.834,5.711,8.398,5.711,13.692C170.088,192.458,168.195,196.941,164.421,200.64z" fill="#FFFFFF"/></g></g></svg>